<svg id="Calque_2" data-name="Calque 2" xmlns="http://www.w3.org/2000/svg" viewBox="0 0 60.71 51.75"><defs><style>.cls-1{fill:#20201a;}</style></defs><path class="cls-1" d="M52.66,40.13H26.84a5.48,5.48,0,0,1-5.12-3.59L10.42,5.48a2.75,2.75,0,0,0-2.58-1.8H2V1H7.84A5.48,5.48,0,0,1,13,4.55l11.3,31.06a2.73,2.73,0,0,0,2.57,1.8H52.66a2.72,2.72,0,0,0,2.63-1.95L59.91,20a2.72,2.72,0,0,0-.43-2.42,2.69,2.69,0,0,0-2.2-1.11H28.7V13.79H57.28a5.46,5.46,0,0,1,5.23,7L57.89,36.24A5.44,5.44,0,0,1,52.66,40.13Z" transform="translate(-2.03 -0.96)"/><circle class="cls-1" cx="23.24" cy="47.93" r="3.81"/><circle class="cls-1" cx="51.78" cy="47.93" r="3.81"/></svg>