<svg id="Calque_2" data-name="Calque 2" xmlns="http://www.w3.org/2000/svg" viewBox="0 0 25.93 26.2"><defs><style>.cls-1{fill:#ffd703;}</style></defs><path class="cls-1" d="M18.76,6.72H18a4.92,4.92,0,1,1-1.44-3.47A4.88,4.88,0,0,1,18,6.72h1.5a6.41,6.41,0,1,0-6.41,6.41,6.41,6.41,0,0,0,6.41-6.41Z"/><path class="cls-1" d="M4.23,25.9a11.13,11.13,0,0,1,2.66-7.33A9,9,0,0,1,9.72,16.4a7.83,7.83,0,0,1,6.77,0,9.37,9.37,0,0,1,3.92,3.69A11.32,11.32,0,0,1,22,25.9h1.67a12.52,12.52,0,0,0-3-8.27,10,10,0,0,0-7.52-3.51,10,10,0,0,0-7.51,3.51,12.53,12.53,0,0,0-3,8.27Z"/></svg>