<svg id="Calque_2" data-name="Calque 2" xmlns="http://www.w3.org/2000/svg" viewBox="0 0 40.59 54.69"><defs><style>.cls-1{fill:#ffd703;}</style></defs><path class="cls-1" d="M34.21,16.35h-1.6a10.5,10.5,0,1,1-3.08-7.42,10.46,10.46,0,0,1,3.08,7.42h3.21a13.71,13.71,0,1,0-13.7,13.71,13.7,13.7,0,0,0,13.7-13.71Z" transform="translate(-1.82 -2.65)"/><path class="cls-1" d="M5,57.33a25.28,25.28,0,0,1,5.13-15.66,17.43,17.43,0,0,1,5.44-4.62,13.54,13.54,0,0,1,13,0,18.9,18.9,0,0,1,7.57,7.87,26.41,26.41,0,0,1,3,12.41h3.21a28.4,28.4,0,0,0-5.82-17.65c-3.62-4.57-8.75-7.51-14.47-7.51S11.26,35.11,7.64,39.68A28.4,28.4,0,0,0,1.82,57.33Z" transform="translate(-1.82 -2.65)"/></svg>