<svg id="Calque_2" data-name="Calque 2" xmlns="http://www.w3.org/2000/svg" xmlns:xlink="http://www.w3.org/1999/xlink" viewBox="0 0 212.25 313.52"><defs><style>.cls-1{fill:url(#Dégradé_sans_nom_34);}.cls-2{fill:url(#Dégradé_sans_nom_34-2);}.cls-3{fill:url(#Dégradé_sans_nom_34-3);}.cls-4{fill:url(#Dégradé_sans_nom_4);}.cls-5{fill:url(#Dégradé_sans_nom_29);}.cls-6{fill:url(#Dégradé_sans_nom_29-2);}.cls-7{fill:#fff;}</style><linearGradient id="Dégradé_sans_nom_34" x1="58.46" y1="318.99" x2="96.55" y2="148.93" gradientUnits="userSpaceOnUse"><stop offset="0" stop-color="#f4e4b0"/><stop offset="0.51" stop-color="#969281"/><stop offset="0.61" stop-color="#8e8979"/><stop offset="0.79" stop-color="#776f63"/><stop offset="1" stop-color="#534741"/></linearGradient><linearGradient id="Dégradé_sans_nom_34-2" x1="62.18" y1="301.8" x2="93.5" y2="161.96" xlink:href="#Dégradé_sans_nom_34"/><linearGradient id="Dégradé_sans_nom_34-3" x1="175.81" y1="314.92" x2="135.95" y2="146.63" xlink:href="#Dégradé_sans_nom_34"/><linearGradient id="Dégradé_sans_nom_4" x1="172.87" y1="301.89" x2="139" y2="158.88" xlink:href="#Dégradé_sans_nom_34"/><radialGradient id="Dégradé_sans_nom_29" cx="112.75" cy="109.44" r="103.81" gradientUnits="userSpaceOnUse"><stop offset="0" stop-color="#969281"/><stop offset="0.41" stop-color="#989482"/><stop offset="0.58" stop-color="#9f9a86"/><stop offset="0.71" stop-color="#aca58c"/><stop offset="0.82" stop-color="#bdb495"/><stop offset="0.91" stop-color="#d4c8a0"/><stop offset="0.99" stop-color="#f0e0ae"/><stop offset="1" stop-color="#f4e4b0"/></radialGradient><radialGradient id="Dégradé_sans_nom_29-2" cy="109.44" r="89.91" gradientTransform="matrix(0.96, 0.28, -0.28, 0.96, 34.57, -26.86)" xlink:href="#Dégradé_sans_nom_29"/></defs><path class="cls-1" d="M86.12,321.52,62.3,298.15l-28.82,12Q51.69,226,69.91,141.85l52.64,11.4Z" transform="translate(-6.63 -8)"/><path class="cls-2" d="M84.7,305.61l-9.85-9.48c-3.32-3.16-6.64-6.38-9.94-9.6l.28.06-23.66,9.93-.62.26.14-.66c2.46-11.54,4.88-23.09,7.45-34.6L56.12,227c2.52-11.52,5.13-23,7.58-34.57l7.37-34.62.06-.28.28.06,43.32,9.2.45.1-.1.45L107.6,202,100,236.69Zm0-.09,14.65-69.45,7.37-34.51,7.5-34.46.35.54L71.29,158.1l.34-.22L64,192.45c-2.55,11.52-4.92,23.08-7.4,34.61l-7.36,34.62c-2.41,11.55-5,23.07-7.52,34.59l-.48-.4L65,286.11l.16-.07.13.12c3.23,3.19,6.43,6.38,9.65,9.62Z" transform="translate(-6.63 -8)"/><path class="cls-3" d="M147.63,320l20.8-24.86,31.84,13.47L163.85,140.36l-52.64,11.4Z" transform="translate(-6.63 -8)"/><path class="cls-4" d="M148.94,305.61,157.61,295c2.86-3.52,5.71-7,8.59-10.44l.12-.15.18.08,26.8,11.21-.51.42c-2.6-11.77-5.2-23.54-7.68-35.33l-7.51-35.37c-2.53-11.78-4.95-23.59-7.57-35.36l-7.77-35.31.35.23-44.18,9.74.36-.56,7.66,35.2L134,234.65Zm0,.1-15.63-70.4-7.78-35.44-7.64-35.47-.11-.47.47-.1,44.26-9.4.29-.06.06.29L170.37,190c2.48,11.79,5.17,23.54,7.74,35.32l7.78,35.31c2.63,11.76,5.12,23.56,7.62,35.35l.15.69-.65-.28L166.3,285l.3-.07c-2.94,3.5-5.92,7-8.88,10.44Z" transform="translate(-6.63 -8)"/><path class="cls-5" d="M218.87,109.44c0,10.64-16.26,18.58-19.38,28.19-3.23,10,5.15,25.91-.88,34.2s-23.9,5.3-32.27,11.39-10.84,23.95-20.79,27.18c-9.6,3.12-22.16-9.78-32.8-9.78S89.55,213.51,80,210.4c-10-3.23-12.51-21.16-20.79-27.18s-26.18-3-32.27-11.39,2.35-24.25-.88-34.2C22.89,128,6.63,120.08,6.63,109.44S22.89,90.86,26,81.26c3.23-10-5.15-25.92.88-34.2s23.9-5.3,32.27-11.39S70,11.72,80,8.49c9.6-3.12,22.16,9.77,32.8,9.77S136,5.37,145.55,8.49c9.95,3.23,12.51,21.15,20.79,27.18s26.18,3,32.27,11.39-2.35,24.24.88,34.2C202.61,90.86,218.87,98.8,218.87,109.44Z" transform="translate(-6.63 -8)"/><path class="cls-6" d="M201.1,134.8c-2.55,8.86-18,11.58-22.88,18.83-5.07,7.52-1.9,22.81-8.9,28.27s-21.17-1.31-29.59,1.76S125,201,115.93,201.32c-8.74.31-16.11-13.43-25-16s-22.39,5.19-29.64.3c-7.52-5.07-5.36-20.6-10.81-27.6s-21.08-8.77-24.15-17.19,7.76-19.63,7.45-28.68c-.31-8.74-12-19.24-9.41-28.1s18-11.58,22.88-18.83c5.07-7.51,1.9-22.81,8.9-28.26s21.17,1.3,29.59-1.77,14.74-17.35,23.8-17.66c8.74-.3,16.11,13.44,25,16s22.39-5.19,29.64-.3c7.52,5.07,5.36,20.59,10.81,27.59S196.07,69.6,199.14,78s-7.76,19.63-7.45,28.69C192,115.45,203.64,125.94,201.1,134.8Z" transform="translate(-6.63 -8)"/><path class="cls-7" d="M185,109.44c.12.24.43.1.33-.55l-.52-.47Z" transform="translate(-6.63 -8)"/><path class="cls-7" d="M185.69,105c-.28-.77-.75-1.63-1.18-1.09.52.73.33.93.93,1.73.1.66-.1,1.16-.28,1.06.14.23-.06,1,.27,1.37a4.61,4.61,0,0,0-.08-3.1C185.45,104.68,185.59,104.91,185.69,105Z" transform="translate(-6.63 -8)"/><path class="cls-7" d="M155.58,49.25l.3.3A2.11,2.11,0,0,0,155.58,49.25Z" transform="translate(-6.63 -8)"/><path class="cls-7" d="M117.67,35.48c.31,0,.44,0,.46-.08C117.84,35.42,117.6,35.44,117.67,35.48Z" transform="translate(-6.63 -8)"/><path class="cls-7" d="M110.67,34.8h.41A.64.64,0,0,0,110.67,34.8Z" transform="translate(-6.63 -8)"/><path class="cls-7" d="M155.58,49.25l-.79-.78C154.64,48.56,155.17,48.9,155.58,49.25Z" transform="translate(-6.63 -8)"/><path class="cls-7" d="M183.46,96.26a2.88,2.88,0,0,0,.21.55l-.13-.52Z" transform="translate(-6.63 -8)"/><path class="cls-7" d="M169.13,61.08l.23.25a1.86,1.86,0,0,0,.34.07Z" transform="translate(-6.63 -8)"/><path class="cls-7" d="M177.2,72.35c-.15-.27-.57-.16-.79-.17a1.17,1.17,0,0,1,.6.44A.43.43,0,0,0,177.2,72.35Z" transform="translate(-6.63 -8)"/><path class="cls-7" d="M184.5,92.94l.15.36Z" transform="translate(-6.63 -8)"/><path class="cls-7" d="M162.22,54a.28.28,0,0,0,0-.2A.26.26,0,0,0,162.22,54Z" transform="translate(-6.63 -8)"/><path class="cls-7" d="M182.33,124.75h.07C182.38,124.68,182.36,124.65,182.33,124.75Z" transform="translate(-6.63 -8)"/><path class="cls-7" d="M186.1,109.44v.22a.68.68,0,0,0,.23,0Z" transform="translate(-6.63 -8)"/><path class="cls-7" d="M97.76,35.65h.06C98.15,35.55,98,35.59,97.76,35.65Z" transform="translate(-6.63 -8)"/><path class="cls-7" d="M39.49,125.3c0-1.37,1,2,.92,0C40.29,125.49,39.31,123.63,39.49,125.3Z" transform="translate(-6.63 -8)"/><path class="cls-7" d="M183.46,95.91l-.09-.54A3.3,3.3,0,0,0,183.46,95.91Z" transform="translate(-6.63 -8)"/><path class="cls-7" d="M40.41,125.27h0v0Z" transform="translate(-6.63 -8)"/><path class="cls-7" d="M70.52,47.43a.83.83,0,0,0,.34,0S70.75,47.37,70.52,47.43Z" transform="translate(-6.63 -8)"/><path class="cls-7" d="M90.62,38.35l-.53.13A3.74,3.74,0,0,0,90.62,38.35Z" transform="translate(-6.63 -8)"/><path class="cls-7" d="M62,55.11a2.31,2.31,0,0,0-.62.52l.13-.05A1.22,1.22,0,0,1,62,55.11Z" transform="translate(-6.63 -8)"/><path class="cls-7" d="M54,63.89l.2-.12.21-.32Z" transform="translate(-6.63 -8)"/><path class="cls-7" d="M167.26,155.61a1.77,1.77,0,0,1,.64-.15C167.55,155.4,168.6,154.09,167.26,155.61Z" transform="translate(-6.63 -8)"/><path class="cls-7" d="M183.69,96.22a.43.43,0,0,1-.23-.31l.08.38C183.61,96.31,183.67,96.3,183.69,96.22Z" transform="translate(-6.63 -8)"/><path class="cls-7" d="M63.89,57.84,62.51,59C62.91,58.7,63.41,58.28,63.89,57.84Z" transform="translate(-6.63 -8)"/><path class="cls-7" d="M93,178.14l.42.06A1,1,0,0,0,93,178.14Z" transform="translate(-6.63 -8)"/><path class="cls-7" d="M58.94,63a3.76,3.76,0,0,0-.91.57.46.46,0,0,0-.06.22Z" transform="translate(-6.63 -8)"/><path class="cls-7" d="M167.91,155.46h0Z" transform="translate(-6.63 -8)"/><path class="cls-7" d="M173.91,145.1c-.91,1.46,0,1,.12,1.44-.94,1.86-.84.61-1.44,1.06a12.23,12.23,0,0,0-.59,1.69,5,5,0,0,1-.68,1.35c-.12,0-.26.13-.22-.11-.47,1.35-2.39,3.27-2.95,4.87a.47.47,0,0,1-.24.06.82.82,0,0,1,.74.31c-.52.58-.72,1.31-1.19,1.29a1.07,1.07,0,0,0,.32-.72l-.44.72c-.89.2.62-.95.33-1.2a26.38,26.38,0,0,1-2.82,3.77c-.54-.16,1.8-2.23.37-1.33l1.42-1.27c-1.57.53.81-.81-.72-.4a15,15,0,0,0-1.72,2,8.15,8.15,0,0,1-1.78,1.9c-.21.58.43.18.21.75-2.28,2.76-2.9.92-4.36,3.16a2.76,2.76,0,0,1-1.81,2.17l.15-.83c-2,1.39-.6,1.48-2.85,2.68.23-.45,1.4-1.29,1.07-1.12-1.56.6-.73.95-1.74,1.71l-.5-.28c-1.06.7-2.15,1.48-3.27,2.3a24.1,24.1,0,0,1-3.53,2.31c.07-.21.43-.56-.24-.41a45.63,45.63,0,0,1-5,2.44c-1.8.57-3.61,1.07-5.26,1.51l-1.1.87c-.29.1-.6,0-.31-.2-1.34.18,0,.29-.56.61-.73.22-1,0-.61-.24-1.09.47-2.68,1.09-4.31,1.61-.41.12-.82.26-1.23.36l-1.22.18a14.39,14.39,0,0,1-2.18.13l.46-.2c-1.94.12-2,1.22-3.89,1.09l.33-.13-6.44.33c-.52,0-1,.06-1.55.06l-1.48-.14a19.26,19.26,0,0,1-2.64-.46c-.32.3-1.36.18-2.36.09s-1.94-.29-2.13.15a28.2,28.2,0,0,0-4.92-1.64c-.88-.15-1.42.26-2.53.08l.07-.45-1.58.09-.65-.74-1-.14c.39.13.8.42.71.53A9.43,9.43,0,0,1,91.6,178a2.89,2.89,0,0,1-1.2-.89l-3.76-1c.15-.14.78,0,1.3.09-2.11-.27-.18-.58-2.11-.83.2.18-.23.21-.3.28a24,24,0,0,0-4.18-2.12l.41-.16A80.94,80.94,0,0,1,73.64,169c.9.72.38,1.05-.46.6l-.06-.6c-.69-.07.75.66-.53.32-1-.76-.35-.94.29-.66l-1.27-.73c0-.17.34,0,.51-.13-.65-.11-1.72-1.9-2.72-2l0-.17-1.71-1.25c-.5-.38-.91-.76-1.34-1.11-.83-.7-1.62-1.35-2.59-2.22-.33.27-1-.48-1.85-.77-1.21-1.53-2.41-3.34-4-5-1.21-1.12-.58-.14-1.23-.57.23-.34-1.19-2.17-.25-1.38-.86-1.1-1.41-1.8-2-2.56l-1.06-1.23-1.3-1.8c.07.42.24.83,0,.7-.39-.52-.63-1.34-.42-1.35l.12.12a17.16,17.16,0,0,1-2.95-5.76c-.36-1-.71-2-1.11-2.95a12.52,12.52,0,0,0-.63-1.27,6.61,6.61,0,0,0-.61-1.12l.1.15L45,133.29c-.45-1.44.58.75.42-.37a18.08,18.08,0,0,1-1.07-2.18c-.21-.7-.36-1.36-.5-2a20.65,20.65,0,0,0-1.09-3.86,3.77,3.77,0,0,0,.07-1,11,11,0,0,0,0-1.26c-.08-.9-.25-1.9-.44-2.93s-.42-2.07-.54-3.06A12.79,12.79,0,0,1,42,113.9l-.25.19c-.3-.76.1-1,.13-1.53-.2.09-.19.86-.36.38-.48-3.31,0-6.75.26-10.18.22-1.71.67-3.39,1-5.07l.51-2.51c.25-.82.5-1.63.74-2.44.69-2.37-1-1.72.42-4.59l.25,1a43.54,43.54,0,0,1,2.27-7.26C48,79.58,49.14,77.3,50,75c0,.3.06.37-.14.81.78-.75,2-3.28,1.73-3.46.43-.64.32,0,.69-.34.73-.76.94-2.5,1.59-2.73.1,0-.09.29-.17.47.25-.65,1.93-2.5,1.2-2.22,1.28-1.35,1.93-3,3.09-3.94.3-1,2.29-2.19,2-2.86.43.57,2.52-2.07,3.25-3-.15.41.9-.53.75,0,1-.9,1.79-1.81,1.39-1.92,2.27-1.11,3.44-3.63,5.16-3.66l2.18-2,2.31-1.64L77.35,47l1.13-.76,1.19-.65c.11.36-.82.72-1.6,1.26s-1.58,1-1.33,1.28c.68-.5,1.28-1,1.85-1.42s1.15-.76,1.71-1.13a25.15,25.15,0,0,1,3.84-2.05c.82-.3-.33.48-.54.71a23.55,23.55,0,0,1,4.51-1.93c.74-.27,1.48-.54,2.2-.83L91.37,41l1.07-.39c0,.06-.29.21-.57.34.57-.17,1.36-.25,1.22-.53l-.54.23c-1.06-.19,2-1.49,2.1-1.75-.77,1.11,3-.53,1.66.95.36-.15.81-.42.67-.59.58-.09.78,0,.26.35a12.8,12.8,0,0,0,1.62-.67,4.57,4.57,0,0,1,1.53-.41c0,.15-.35.26-.52.46a8.94,8.94,0,0,1,3.49-1c-.09.11.11.19-.37.27,2.75-.58,4.71-1.21,7.82-1.14-.9.7,1,.16,1.22.71a11.5,11.5,0,0,1,1.65-.15l-.66-.31c1.45.09,2.75-.25,4,0l-1.1.18,2.73,0-1.53-.29c1.5-.21-.11-.71,1.83-.46-.4,0,1.48,0,2.19.54h0a6.27,6.27,0,0,1,2.56.16c.25.22-.31.57-.15.72.77-.33,3.4.33,4.37.08-.31,0-.39.33-.31.41l.66-.22c.63.29.72.37.56.57,2,.57-.47-.85,1.8.05-.19,0-.11.06-.51,0a30.1,30.1,0,0,0,3.43.85,13.92,13.92,0,0,1,3.21,1.07c.43.76-1.87-.54-1.31.17,1.51.5,3.12.91,4.72,1.35a24.42,24.42,0,0,1,4.47,1.86l-.5-.31c.73-.5,1.93,1.33,3.48,1.74-.35-.16-.65.14-.51.1,1.74,1.23,3.83,2,6.68,3.6l-.44-.07c.9.9,2.59,2.06,3.61,2.94.45.08,1.05.57.86.06a13.27,13.27,0,0,0,1,1.18,13.68,13.68,0,0,0,1.06,1.09,26.6,26.6,0,0,0,2.29,1.86,18.88,18.88,0,0,1,2.22,1.82,10.14,10.14,0,0,1,1.67,2.28c-.3-.33-.84-.66-.6-.4l2.26,2.21c.09-.41-.12-.44-.37-1.11a5.56,5.56,0,0,1,1.69,1.31c-1.16-.9-.39.34-.19,1,0-.15.24-.05.29-.16.51,1.71.71-.21,1.75,1.87h-.22a14.92,14.92,0,0,1,1.75,1.87c-.1.54-.69-.61-1-.46.77,1,2.18,1.57,2.41,2.81a14.88,14.88,0,0,0-1.21-1.44,7.89,7.89,0,0,0,.92,2.2l0-.08.94,2-.18-.53a4.26,4.26,0,0,1,1.79,1.85c.23.38.47.77.74,1.18a6.71,6.71,0,0,0,.91,1.25c-1.48-1.6-.48-.14-1-.07.13.55.36,1.36.15,1.21.76.75.47,1.64,1.57,2.7-.1.12.46,1,0,.92.68,1.14.1-.38.32-.35a8.17,8.17,0,0,1,1.27,3.27,12.68,12.68,0,0,0,1.54,3.9c1,2.34,1.51,2.68,2.35,4.92,0,.83-.67-.51-.67-.51a13.52,13.52,0,0,0,.79,3.36c-.16-.21-.23.06-.33.45.18,1,.61.55.6,1.85a3.17,3.17,0,0,1-.73-.86c.31,1.1.74,2.17,1.05,3.32-.2.34-.49-.65-.71-1a16.22,16.22,0,0,0,1.12,3.74l.1-.87c0,.48-.32.28-.43-.07-.49-1.08-.11-1.63,0-1.71l.22.82c.72-1-.65-3.35-.85-5l.72.59-.77-1.63c.08-.4.39-.72.62.09.07-1.27-.47-1-.38-2.11,0-.12.07-.08.12,0L184,91.82c.19.2.38-.3.47.44-.19-2.2-1.32-3.26-1.07-4.18l.09.17c-1.08-2.81-.5-.16-1.74-2.1l.54-1.79-.53-.12c-.09-.3-.27-.88-.06-.84-.69-1-.12.25-.62-.27a8.91,8.91,0,0,0-.8-2.53c-.39-.78-.68-1.46-.42-1.76-.55-.34.37,1.39-.54.06.52-.74-.91-1.59-1.18-3,.54.19.91,1.46.64.06a2.35,2.35,0,0,1-1-1.51,6.8,6.8,0,0,0-.84-1.86c-.5.23-1.49-2-2.65-3.57.31-.06-1.84-3.14-2.77-4.7h.1c-.67.08-1.61-1.54-2.63-2.44.28-.17.56-.09,1.15.38-.27-.33-.57-.63-.85-1a3.66,3.66,0,0,1-1.28-.91l.52,0a52.3,52.3,0,0,1-4-4c-.35.2.52,1.91-1.34.57.08-.21.26-.52.76-.18a3,3,0,0,1-.86-.67l.92.36c-.63-.77-.59-.14-1.15-.69.22-.2-.29-.55,0-.64.17.11.42.55.73.67a6.89,6.89,0,0,1-1.43-1.9c-.05.18-.26.29-.77-.12-1.27-1.12-.2-.65-.83-1.44-.42-.14-1.16-1-1.46-.62a1.06,1.06,0,0,1-.42-.72c-.82-.38-3.32-2.42-2.8-1.45l.16.16-.13-.07h0a15,15,0,0,1-1.83-1.18l-1.83-1.24a35.46,35.46,0,0,0-3.68-2.39l.07-.12a28.16,28.16,0,0,0-4.64-1.86c-.45-.22-.95-.76-.69-.82a18.85,18.85,0,0,1-3.05-1.3c1.32.22-.34-.36,1.33.29a9.73,9.73,0,0,0-3.67-1.3c.71-.14-1-.89-1.84-1.06l1,.66a23.66,23.66,0,0,1-2.35-.86l.56-.33a13.26,13.26,0,0,0-4.66-1.08,10.63,10.63,0,0,1-4-1.06c-1,.2,1.82.52.93.8A30.9,30.9,0,0,1,124,35.5c-2.15-.58-2.12.34-4.36,0,.27.19.49.67-1.21.75-1.57-.14-1.9-.84-.88-.93.38,0,.56.07.54.13.52,0,1.2-.08.59-.3l-.22.16c-.78-.22-3-.31-2.46-.57-1.22.1-.53.26.36.4a29.28,29.28,0,0,0-5.32-.28c.34.08.65.27.32.29-3.1-.07-1.35.4-3.43.58-1.2-.21.38-.66-1.71-.33-1.3-.11-.32-.45.19-.62a7.68,7.68,0,0,1-1.39.18,11.49,11.49,0,0,1-1.27.09c-.8,0-1.52,0-2.07,0l1-.3a10.87,10.87,0,0,1-1.6.33l.63.26c-.6,0-1.1.1-1.11,0-.58.32.55.51-.6,1-.81,0-2.35.51-2.7.17,2.49-.3-.38-.44,1.71-.86a6.88,6.88,0,0,1-1.5.23c-.1,0,.06-.12.22-.17-2.43.16-1,.79-3.37,1.39.24-.34-.69-.34-1.07-.19,1-.24.57.31-.26.74a8.86,8.86,0,0,0-2.44.76l.95-.15c-.24.33-1,.49-2,1-.15-.17.9-.48.5-.43-1,.86-2.76.49-4.26,1.38-.82.1-.26-.44-1-.31-1.7,1-2.07.48-3.81,1.59.68.07.73,0-.4.88l2.89-1.67L81.8,42a24.5,24.5,0,0,1,2.39-1.29c-.83.63-.75.56-.21.61-1.44.1-2.3,1.45-3.87,1.81l-.34-.82a9.81,9.81,0,0,0-3,1.57,20.23,20.23,0,0,1-3.28,2.2l.93-.39c-.17.52-1.6,1-2.38,1.67-.08-.29-.68-.06-1.15,0,.17.15-1.83,1.34-1.71,2l-1.34.51c-2.09,1.39-1.8,2.31-3.6,3.87.32-.73-.62-.15.42-1.41-.59.54-1.16,1-1,1.14-.47.18-1.38,1.79-2.11,2.08-.16.32,0,.62-.7,1.2-.12,0-.1-.11-.1-.11s-.85,1.14-.08.8a13.37,13.37,0,0,0-3.4,3.13c-.55.63-1.09,1.25-1.62,1.79a6.52,6.52,0,0,1-1.42,1.38l-3,4.49c0-.14-.12-.09.06-.33-1.37,1.72,0,1.61-1.53,3.55-1.06.84.47-1.25-.1-.67-1-.19-1.51,2.59-2.73,3.82l.12-.4c-.85,1-1,3-2,4.84,0,0,0-.12-.13-.07-.26,1.46-.93,4.08-1.51,6-.14-.71.13-.92-.37-.69-.26.86.67,0,.16,1.67-.38.48-1,1.62-1.43,1.69.13-.56.36-1.08.53-1.62a2.32,2.32,0,0,0-.7,1.39A8.86,8.86,0,0,1,41.21,89L41,88.8c-.58,2.56,0,2.73-.75,5.42l.25-.24c.22,1.59-.55,1.19-.38,2.76l-.65.35c0,1,0,3.57-.07,5.36-.39-1.06-.22-3.17-.3-4.51a15.1,15.1,0,0,0-.26,3.92,3.85,3.85,0,0,1,.09-1.31,20.51,20.51,0,0,1,.3,4.86c-.56-.21-.7,1.08-.81,2.6s0,3.26-.44,4a37.61,37.61,0,0,1,.38,5.34c.18,1.82.34,3.73.69,5.77.65-1.6.2,1.19,1.06.77.2.93.35,1.27.29,1.37l.19,2.93c-.09.73-.42-.84-.6-.7.46,2.06-.16.95,0,2.38.24-.37.64.59.82,1.79l0-1.76a6.84,6.84,0,0,1,.63,2.68,5.24,5.24,0,0,0,.82,2.65l-.59-.79c.34.7.82,2,1.37,3.33.15.32.29.64.43.95s.35.58.52.84a5.32,5.32,0,0,0,1,1.22c0,.28,0,.71-.4.13.37.84.82,1.7,1.3,2.55A21.16,21.16,0,0,0,47.42,146a23.54,23.54,0,0,1,2.71,4.39l-.33-.11a6.19,6.19,0,0,1,1.28,1.59c-.11,0-.35-.09-.17.17a9.46,9.46,0,0,1,1.83,2l-.66-.47A17.18,17.18,0,0,0,54.9,157c1,.84,2,1.55,3.09,2.59-.47.41,1.18,2.72,2.17,3.72l-.1,0a43,43,0,0,0,4.3,3.54c1.4,1,3,1.77,4.53,2.83a11.22,11.22,0,0,0,1.66,1.68,28.62,28.62,0,0,0,2.54,1.72c1.88,1.15,3.86,2.49,5.54,3.42-.47-.37.32-.42,1-.18.75.51,2.42.65,2,1.14l-.28-.15c.37.81,2.07,1.56,3.45,2l.51-.65a12.48,12.48,0,0,0,2.82,1.49,18,18,0,0,0,3.28,1c2.22.44,4.21.82,5.09,1.57a19.59,19.59,0,0,0,3,.17l-.12.41c1.24.25,2.17.43,3.18.6l1.62.24.94.13,1.09,0-.66.27c1.77.12,2.32-1.1,3.91-1l.46.65a29.66,29.66,0,0,0,9.17-.2c0,.09-.11.28-.61.33,1.45.08,5.61-.24,5-1,.11.54,3.15-.39,4.7-.95l-.16.47A8.33,8.33,0,0,1,131,181.2c.46-.06.47.22-.14.27,1.53-.17,1.05-.68,2.9-.92l-.6.42c1.53-.37,1.39-.42,2.1-1,.87-.49,2.82-.92,3.17-.64a2.8,2.8,0,0,1,1.72-1.09c.17.09-.11.29-.25.38a11.52,11.52,0,0,0,1.66-.55c.47-.23.85-.5,1.23-.73a6.87,6.87,0,0,1,2.3-1.09.41.41,0,0,0,.38.09c-1.89.9-3.42,1.6-3.29,1.51.15.35,1.72-.32.71.75a19.76,19.76,0,0,1,4.51-3,.57.57,0,0,1,.26,0l-.13.11a3.31,3.31,0,0,0,.91-.51c.48-.22.79-.36,1.23-.61.32.17,1.75-.87,2.49-1.3-.28-.32.7-.84-.37-.59.13,0-.11.12-.58.43a2.71,2.71,0,0,0-.29.22l0-.06-1.77,1.11a3.89,3.89,0,0,1,1.88-1.33c.23-.45.48-.93.64-1.18a12.07,12.07,0,0,0,2.22-.51,6.08,6.08,0,0,1,1.56-.43c1-.87,2.17-1.81,3.22-2.74a15.58,15.58,0,0,0,1.42-1.36,5.78,5.78,0,0,0,.84-1.36c.47-.56.76-.39,1-.48a7.43,7.43,0,0,0-.74.91c.95-1.14,3.16-3,3-3.6,1.52-1.08-.37,1.09,1.36-.75l-.11.37a18.69,18.69,0,0,0,4.27-5,19.43,19.43,0,0,1,4.17-5.61c-.28.27-.42.4-.55.41a10.5,10.5,0,0,0,1.42-1.89c.44-.67.86-1.35,1.27-2a34,34,0,0,0,2.3-4.24c.67-1.46,1.33-2.92,2-4.34a23.06,23.06,0,0,0,1-2.15c.32-.72.66-1.43,1-2.12a5.88,5.88,0,0,0,.6-3l.56-.22c0-.64,0-1.29,0-1.92a10.15,10.15,0,0,1,1.21-3.44,12.42,12.42,0,0,0,.73-1.81,7.65,7.65,0,0,0,.16-2.25l-.36.37c.24-1.16.39-3.72.7-3.48a.94.94,0,0,1,0-.86h.24c0-.48,0-1,0-1.45l-.13-1.47c.28-2.23.92.43,1.13-2.87,0-1.24-.51-3.51-.69-3s-.21,1.26-.45,1.29l-.07-1.11c-.69-.21-1.36-1-2,1.62l.33,1.86-.36.58.05-1.56a2.83,2.83,0,0,0,.06,2.08,1.17,1.17,0,0,0-.41.74l.56,1.87c-.3.19-.44-.86-.74.33.17.87.73-.74.71.68-.45.84-.66.55-.55,1.61-.2.12-.28-.11-.3-.53.08.94-.27,2.42,0,3a5.76,5.76,0,0,0-.46,1.84c-.14.64-.34,1.14-.64,1a8.28,8.28,0,0,1-.09,2.52c-.38-1.69-.83,3.07-1.54,2.44.45,1.32-1.07,4-1.36,6a.86.86,0,0,1,.05-.54,11.3,11.3,0,0,1-1.13,1.92c.48.36-.18,2-.27,3-1.12,1-.25-1.06-.94-.89.46.13-.62,2.39-.06,2.14-.78.81-.56.76-1.22,1,.55.5-.29,1-.39,1.93-1.12,1.15-.8,0-1.49,1.56C173.35,146.51,173.91,145.1,173.91,145.1Zm-28.06,28.37h0l.75-.39Zm-3.09,1.5,1.35-.63c.17.08.12.27-.2.41C144,174.58,143.27,174.86,142.76,175Zm7.9-.84c-.46.34-.66.37-.77.33l.82-.55,0-.08A.71.71,0,0,1,150.66,174.13Z" transform="translate(-6.63 -8)"/><path class="cls-7" d="M151.24,173.13a1.58,1.58,0,0,1,.18-.15l-.33.09-.11.22Z" transform="translate(-6.63 -8)"/><path class="cls-7" d="M155.94,49.6l-.06-.05a.46.46,0,0,1,.09.14A.32.32,0,0,1,155.94,49.6Z" transform="translate(-6.63 -8)"/><polygon class="cls-7" points="90.08 170.88 90.06 170.99 90.36 170.97 90.08 170.88"/><path class="cls-7" d="M168.88,63.7A.62.62,0,0,0,169,64,.82.82,0,0,0,168.88,63.7Z" transform="translate(-6.63 -8)"/><path class="cls-7" d="M173.58,70.4l.47,1.07C173.86,71,173.71,70.67,173.58,70.4Z" transform="translate(-6.63 -8)"/><path class="cls-7" d="M176.58,75.92a.45.45,0,0,0,.21,0v0Z" transform="translate(-6.63 -8)"/><path class="cls-7" d="M91.87,40.93l-.23.07C91.13,41.24,91.48,41.09,91.87,40.93Z" transform="translate(-6.63 -8)"/><path class="cls-7" d="M121.13,37.36c-.32,0-.63,0-1,0C120.69,37.52,121.09,37.59,121.13,37.36Z" transform="translate(-6.63 -8)"/><polygon class="cls-7" points="57.42 49.72 57.41 49.71 57.27 49.84 57.42 49.72"/><path class="cls-7" d="M118.78,37.33a4.83,4.83,0,0,0,1.39.08A7.16,7.16,0,0,0,118.78,37.33Z" transform="translate(-6.63 -8)"/><path class="cls-7" d="M184.26,101.78l0,.3a.09.09,0,0,1,.07,0Z" transform="translate(-6.63 -8)"/><path class="cls-7" d="M184.36,102.11l.07.33A.62.62,0,0,0,184.36,102.11Z" transform="translate(-6.63 -8)"/><path class="cls-7" d="M184.57,103.14l-.14-.7A1.26,1.26,0,0,0,184.57,103.14Z" transform="translate(-6.63 -8)"/><path class="cls-7" d="M183.07,93.58l-.17,0A.2.2,0,0,0,183.07,93.58Z" transform="translate(-6.63 -8)"/><path class="cls-7" d="M182.4,91.15a11.65,11.65,0,0,0,.36,2.33l.14,0C182.58,93.2,182.79,91.65,182.4,91.15Z" transform="translate(-6.63 -8)"/><path class="cls-7" d="M180.8,80.44c.25.68.43,1.39.65,2.08,0-.42.06-1,.43,0C181.38,79.71,181.76,83.12,180.8,80.44Z" transform="translate(-6.63 -8)"/><path class="cls-7" d="M178.09,74.28c.58,1,.2-.13.31-.12C177.92,73.58,177.79,73.45,178.09,74.28Z" transform="translate(-6.63 -8)"/><path class="cls-7" d="M143,41.73l.27-.3C142.42,41.09,143.19,41.56,143,41.73Z" transform="translate(-6.63 -8)"/><path class="cls-7" d="M133.71,40.33a8.5,8.5,0,0,1,.75.47l.48-.19A7.31,7.31,0,0,0,133.71,40.33Z" transform="translate(-6.63 -8)"/><polygon class="cls-7" points="122.49 28.34 122.89 28.39 121.39 28.14 122.49 28.34"/><path class="cls-7" d="M54.94,62l.54.09C55.83,61.55,55.5,61.1,54.94,62Z" transform="translate(-6.63 -8)"/><path class="cls-7" d="M40.08,93.86a2.42,2.42,0,0,0-.51,1.93C39.71,95,40,94.26,40.08,93.86Z" transform="translate(-6.63 -8)"/><polygon class="cls-7" points="80.15 171.84 79.42 171.74 80.74 172.08 80.15 171.84"/><path class="cls-7" d="M54.48,81.14a93.93,93.93,0,0,1,20,9.35A103.06,103.06,0,0,1,92.1,104.23a109.56,109.56,0,0,1,25.06,37.34l-9.58,0c1.72-4.63,3.65-9.18,5.72-13.67s4.36-8.87,6.81-13.16a177.17,177.17,0,0,1,16.72-24.39,172.16,172.16,0,0,1,20.49-21.15,148.68,148.68,0,0,1,23.81-17c-6.91,6.84-13.57,13.75-19.8,21A267.4,267.4,0,0,0,143.89,95.7a243.66,243.66,0,0,0-14.79,24.06,246.77,246.77,0,0,0-11.93,25.53l-4.92,12.3-4.65-12.27a125.11,125.11,0,0,0-9-18.81c-1.75-3-3.65-5.94-5.63-8.83s-4.15-5.63-6.38-8.36A135.36,135.36,0,0,0,71.78,94.14,154.71,154.71,0,0,0,54.48,81.14Z" transform="translate(-6.63 -8)"/></svg>