<svg id="Calque_1" data-name="Calque 1" xmlns="http://www.w3.org/2000/svg" viewBox="0 0 80 60"><defs><style>.cls-1{fill:#d6d1c1;}.cls-2{opacity:0.91;}.cls-3{fill:none;stroke:#ffd600;stroke-miterlimit:10;stroke-width:1.48px;opacity:0.69;}.cls-4{fill:#fff;opacity:0.36;}.cls-5{font-size:7.98px;fill:#21201b;font-family:Poppins-Medium, Poppins;font-weight:500;}</style></defs><path class="cls-1" d="M.36,18.07C1.56,18,2.77,18,4,18l3.61-.07,3.61-.05,3.61,0-.17.07L17,15.47l.07-.08h.11l4.78,0,2.38,0,2.39,0h.08l0,0c.6.61,1.19,1.23,1.78,1.84l-.1,0,2.62.07h0l0,0,.81.86.82.88L32,18.33l-.86-.81.05,0c-.87,0-1.74.05-2.62.06h0l0,0c-.62-.59-1.24-1.18-1.85-1.78l.13.06-2.39,0-2.38,0c-1.6,0-3.19,0-4.78,0l.18-.08L15,18.24l-.07.08H14.8l-3.61,0c-1.2,0-2.41,0-3.61,0s-2.41,0-3.61-.08Z"/><path class="cls-1" d="M.36,20.83l1.5,0,1.49,0,1.5,0,1.49,0H6.4l0,0,1.93,1.87-.14-.05,2.26,0,2.26,0,4.52,0-.18.08L18.68,21l.07-.07h5l2.47,0,2.47,0h.08l.05.06,1.91,2,0,0v.06l-.06,2.61,0,1.3,0,1.31,0-1.31,0-1.3-.07-2.61,0,.09-2-1.9.13,0-2.47,0-2.47,0-2.46,0H18.86l.18-.07c-.52.53-1.05,1.05-1.58,1.58l-.08.07H12.76L10.5,23l-2.26,0H8.16l-.05-.06c-.63-.64-1.25-1.28-1.87-1.93l.1.05L4.85,21l-1.5,0-1.49,0Z"/><path class="cls-1" d="M16.62,18.41l1.08,0h1c.45-.47.91-.93,1.37-1.39l0,0h0c.91,0,1.81,0,2.71,0s1.8,0,2.7.05l-2.7.06c-.9,0-1.8,0-2.71,0l.05,0-1.39,1.38h0l-1.07,0Z"/><path class="cls-1" d="M8.42,20.14l1,.93h0L11,21h1.68c1.11,0,2.23,0,3.35,0h0l1.54-1.53,0,0h0l2,0,1,0,1,0-1,0h-1l-2,0h0l-1.54,1.54,0,0h0c-1.12,0-2.24,0-3.35,0H11l-1.67,0h0Z"/><path class="cls-1" d="M26.83,18.87c.35,0,.71,0,1.06-.05H29v0l.58.6c.19.21.38.41.56.63l-.62-.56-.61-.58.05,0H27.89C27.54,18.91,27.18,18.9,26.83,18.87Z"/><polygon class="cls-1" points="0.36 22.38 3.12 22.36 5.88 22.34 5.9 22.34 5.92 22.35 7.53 23.95 7.5 23.94 11.9 23.93 16.3 23.94 16.32 23.94 16.34 23.95 18.46 26.09 18.48 26.1 18.48 26.12 18.46 29.03 18.43 31.93 18.4 29.03 18.38 26.12 18.39 26.16 16.26 24.04 16.3 24.05 11.9 24.06 7.5 24.05 7.47 24.05 7.46 24.03 5.85 22.41 5.88 22.43 3.12 22.41 0.36 22.38"/><path class="cls-1" d="M20.73,24.11l1.19-1.23h0l2.44,0h2.47l0,0L28,24v2.34c0,.77,0,1.54,0,2.31h0l-.93.91-.94.91.9-.94.91-.93v0c0-.77,0-1.54,0-2.31v-2.3l0,.05-1.15-1.16,0,0H24.38l-2.44,0h0Z"/><path class="cls-1" d="M24.36,24.8l-.9,0-.89,0,0,0-.93,1-.47.47-.47.46,0,0v.77c0,.26,0,.51,0,.77s0,.51,0,.77l0,.77,0-.77c0-.26,0-.51,0-.77s0-.51,0-.77v-.79l0,0,.46-.47.47-.47.95-.92v0h0l.89,0Z"/><path class="cls-1" d="M22.53,30.84c.19-.22.38-.43.58-.64l.61-.63,0,0c0-.48,0-1,0-1.45,0-.25,0-.49,0-.73s0-.49,0-.73c0,.24,0,.48,0,.73s0,.48,0,.73c0,.48,0,1,0,1.45v0l0,0-.63.6Z"/><path class="cls-1" d="M.36,44.31l2.53-.05,2.53,0h0l0,0L7.1,45.8l-.09,0,3,0,3,0,6.09,0h.09l.07.07L21,47.35l-.17-.07h11.7l.07.07,3,3-.17-.07,3.89,0,3.88,0h.08l0,0,1.62,1.66L44.81,52l5.5.09-.05,0L51.47,51l1.21-1.16L51.52,51l-1.17,1.21v0h0l-5.5.08h-.06l0,0-1.66-1.62.12.05-3.88,0-3.89,0h-.09l-.07-.07-3-3,.18.07H20.71l-.07-.08L19,46.06l.17.07-6.09-.05-3,0L7,46H7l0,0L5.36,44.37l.06,0-2.53,0Z"/><path class="cls-1" d="M28,11l1-1.07,1-1.06v0h0c1.85,0,3.71-.07,5.56-.08h.06l.05,0,1.69,1.66-.12-.06,3.94,0,3.94,0h.09l.07.07,2.87,2.84L48,13.18H59.79l.07.08,1.56,1.57-.16-.07,6.15.05,6.15.06h0l0,0,1.42,1.47-.07,0,2.5,0,2.5.05-2.5.05-2.5,0h0l0,0-1.48-1.42.1,0-6.15.07-6.15,0h-.1l-.07-.07-1.58-1.56.18.07H47.93l-.07-.07L45,10.74l.17.07-3.94,0-3.94,0h-.07l-.05-.05L35.53,9l.1.05L30.07,9l0,0-1.06,1Z"/><path class="cls-1" d="M47.72,41.49l.88.82.87.82,0,0,2.33-.06h0l0,0c.7.67,1.4,1.34,2.09,2l-.13,0,2.34,0,2.33,0,4.67,0-.18.08,2.54-2.53.08-.08h.1l3.58,0c1.19,0,2.39,0,3.58,0s2.39,0,3.58.08l3.58.1c-1.19,0-2.39.08-3.58.11l-3.58.07-3.58,0-3.58,0,.18-.07-2.54,2.54-.07.08h-.11c-1.56,0-3.11,0-4.67,0l-2.33,0-2.34,0h-.08l0-.06c-.68-.69-1.35-1.39-2-2.09l.1,0-2.33-.06h0l0,0-.82-.87Z"/><polygon class="cls-1" points="49.79 32.51 49.82 37.52 49.81 37.49 51.72 39.39 51.69 39.38 61.64 39.35 61.6 39.37 63.1 37.88 63.11 37.86 63.14 37.86 72.29 37.88 72.31 37.88 72.32 37.89 74.27 39.85 74.25 39.84 77.12 39.86 80 39.88 77.12 39.9 74.25 39.91 74.23 39.91 74.22 39.9 72.26 37.95 72.29 37.96 63.14 37.98 63.18 37.96 61.69 39.46 61.67 39.48 61.64 39.48 51.69 39.45 51.67 39.45 51.66 39.44 49.77 37.54 49.76 37.53 49.76 37.52 49.79 32.51"/><path class="cls-1" d="M.36,45.65l5,0h0L7,47.22h0l12,0h0l1.6,1.6,0,0h5.64l5.65,0h0l3.4,3.41H39l3.68,0h0l1.85,1.87-1.86-1.85h0l-3.68,0H35.24l-3.42-3.4H20.52l-1.59-1.61,0,0-12,0h0l-1.58-1.6h0Z"/><polygon class="cls-1" points="0.36 46.72 5.23 46.69 5.25 46.69 5.26 46.7 6.9 48.32 6.86 48.3 12.68 48.29 18.5 48.3 18.53 48.3 18.55 48.31 20.57 50.34 20.53 50.33 23.15 50.34 23.16 50.34 23.17 50.35 24.35 51.54 24.33 51.53 27.6 51.56 24.33 51.59 24.32 51.59 24.31 51.58 23.12 50.41 23.15 50.42 20.53 50.43 20.51 50.43 20.49 50.41 18.46 48.4 18.5 48.41 12.68 48.42 6.86 48.4 6.84 48.4 6.83 48.39 5.21 46.75 5.23 46.76 0.36 46.72"/><path class="cls-1" d="M45.42,48.47c.33,0,.66,0,1,0s.67,0,1,0h.05c.19.2.39.4.58.61s.38.41.56.63L48,49.1l-.6-.59,0,0c-.33,0-.66,0-1,0S45.75,48.5,45.42,48.47Z"/><path class="cls-1" d="M35.31,43.91c0,.29,0,.58,0,.87s0,.58,0,.87l0,0c.23.23.46.46.68.7l.33.35c.1.12.21.24.31.37l-.36-.32L36,46.37l-.69-.67,0,0v0c0-.29,0-.58,0-.87S35.28,44.2,35.31,43.91Z"/><polygon class="cls-1" points="0.36 42.5 5.69 42.48 5.7 42.48 5.71 42.49 7.79 44.55 7.76 44.54 19.46 44.52 19.49 44.52 19.5 44.54 20.81 45.84 20.77 45.82 26.96 45.82 33.16 45.83 33.18 45.83 33.2 45.84 35.86 48.51 35.83 48.5 42.33 48.51 42.3 48.52 43.82 47.01 43.83 47.01 43.84 47.01 49.66 47.03 43.84 47.06 43.86 47.05 42.35 48.57 42.34 48.58 42.33 48.58 35.83 48.59 35.81 48.59 35.79 48.58 33.12 45.92 33.16 45.93 26.96 45.94 20.77 45.94 20.75 45.94 20.73 45.92 19.43 44.61 19.46 44.63 7.76 44.61 7.75 44.61 7.74 44.6 5.67 42.52 5.69 42.53 0.36 42.5"/><path class="cls-1" d="M4.69,40.62l.51,0,.51,0h1l0,0c.21.21.42.42.61.63s.4.44.59.66l-.65-.59-.64-.61.05,0h-1l-.51,0Z"/><path class="cls-1" d="M11.41,42.27l1.94,0,1.93,0h3.9l0,0c.75.75,1.5,1.49,2.24,2.25l0,0h3.9l2,0,1.95,0-1.95,0-2,0H21.38l0,0-2.25-2.24H15.28l-1.93,0Z"/><polygon class="cls-1" points="0.36 39.59 5.23 39.56 10.1 39.55 10.12 39.55 10.13 39.56 11.62 41.04 11.59 41.02 19.73 41.01 19.76 41.01 19.78 41.03 21.93 43.19 21.89 43.17 30.97 43.2 30.95 43.2 32.34 41.82 32.35 41.81 32.36 41.81 36.67 41.84 32.36 41.87 32.38 41.86 31 43.26 30.99 43.27 30.97 43.27 21.89 43.29 21.87 43.29 21.85 43.27 19.69 41.12 19.73 41.13 11.59 41.12 11.56 41.12 11.55 41.1 10.07 39.62 10.1 39.63 5.23 39.62 0.36 39.59"/><path class="cls-1" d="M45.24,35,44,36.25h0l0,2.59v2.6l0,0-1.81,1.82,0,0h-3.7l0,0-1,1,0,0v1.69l.72.73h0l4.3,0h0l1.3-1.26-1.27,1.29h0l-4.3,0h0L37.53,46l0,0V44.16h0l1-1v0h3.67L44,41.37l0,0,0-2.58c0-.87,0-1.73,0-2.59h0Z"/><path class="cls-1" d="M41,40.62q-.48,0-1,.06H39l0,0c-.19-.19-.38-.39-.56-.59s-.37-.4-.54-.61c.21.18.41.36.6.55s.4.37.59.56l0,0h1Z"/><polygon class="cls-1" points="0.36 38.44 5.44 38.4 10.53 38.39 10.54 38.39 10.56 38.41 12.13 39.97 12.1 39.96 16.07 39.95 18.05 39.95 20.04 39.95 20.06 39.95 20.08 39.97 21.98 41.88 21.95 41.87 26.38 41.88 30.82 41.89 30.8 41.9 32.13 40.59 32.13 40.59 32.14 40.59 33.93 40.6 32.14 40.61 32.15 40.61 30.84 41.94 30.83 41.95 30.82 41.95 26.38 41.96 21.95 41.97 21.93 41.97 21.91 41.96 20 40.05 20.04 40.07 18.05 40.07 16.07 40.07 12.1 40.06 12.08 40.06 12.06 40.05 10.49 38.47 10.53 38.48 5.44 38.47 0.36 38.44"/><path class="cls-1" d="M.36,36.94l5.27,0h5.3l0,0,1.42,1.42,0,0h8.39l0,0,2.34,2.36h0l3.47,0-3.47,0h0L20.67,38.4H12.28L10.87,37l0,0H8.27L5.63,37C3.88,37,2.12,37,.36,36.94Z"/><polygon class="cls-1" points="11.41 37.44 14.32 37.41 14.3 37.42 16.08 35.63 16.09 35.61 16.11 35.61 20.31 35.6 20.27 35.62 22.59 33.28 22.61 33.26 22.64 33.26 27.6 33.27 27.56 33.28 29.36 31.49 29.37 31.48 29.39 31.48 33.03 31.5 36.67 31.53 33.03 31.56 29.39 31.58 29.43 31.56 27.64 33.37 27.62 33.38 27.6 33.38 22.64 33.39 22.68 33.37 20.35 35.7 20.33 35.71 20.31 35.71 16.11 35.7 16.14 35.69 14.34 37.46 14.33 37.47 14.32 37.47 11.41 37.44"/><polygon class="cls-1" points="16.05 38.36 17.51 36.86 17.52 36.86 17.53 36.86 19.84 36.84 22.15 36.83 22.11 36.84 22.94 36.01 22.96 35.99 22.98 35.99 25.64 35.99 28.29 35.99 28.25 36.01 29.65 34.62 29.66 34.61 29.68 34.61 31.71 34.63 33.73 34.65 31.71 34.68 29.68 34.7 29.71 34.69 28.33 36.09 28.31 36.11 28.29 36.11 25.64 36.11 22.98 36.11 23.03 36.09 22.19 36.92 22.17 36.94 22.15 36.94 19.84 36.93 17.53 36.91 17.55 36.9 16.05 38.36"/><path class="cls-1" d="M24,36.05l.45.42.45.43h0l1.24,0h3.67l.95-.91h0c.34,0,.69,0,1,0l-1,0h0l-.91,1H28.62q-.61,0-1.23,0H26.15l-1.24,0h0l-.43-.45Z"/><path class="cls-1" d="M37.92,34.06l.72,0,.71,0h1.44l0,0,.62-.59.63-.57-.57.63-.59.62,0,0H39.35l-.71,0Z"/><path class="cls-1" d="M50.31,40.62l.63.57c.21.19.41.39.61.59l0,0h1l.49,0,.48,0-.48,0-.49,0h-1l0,0c-.2-.2-.4-.4-.59-.61S50.49,40.84,50.31,40.62Z"/><path class="cls-1" d="M2.66,33.14l.58-.61.59-.6.58-.6.59-.6,0,0H9.56l1.5,0h0l.57.59.56.6-.59-.57L11,30.79h0l-1.5,0H5l0,0-.6.59-.6.59-.61.58Z"/><path class="cls-1" d="M1.14,30.5c.19-.23.39-.45.59-.66s.4-.43.61-.64h.05c.34,0,.69,0,1,0s.7,0,1.05.05c-.35,0-.7,0-1.05.05s-.7,0-1,0l0,0-.63.62Z"/><polygon class="cls-1" points="0.36 23.71 2.68 23.67 4.99 23.65 5.01 23.65 5.03 23.67 7.31 25.93 7.26 25.92 10.92 25.92 12.75 25.94 14.57 25.96 14.58 25.96 14.59 25.96 15.63 27.04 14.56 26 14.57 26 12.75 26.02 10.92 26.04 7.26 26.04 7.24 26.04 7.22 26.02 4.95 23.74 4.99 23.76 2.68 23.74 0.36 23.71"/><path class="cls-1" d="M38.36,27.87c.18-.21.37-.42.56-.62s.38-.41.57-.6l0,0H41l.72,0,.72,0-.72,0-.72,0c-.48,0-1,0-1.44,0l0,0-.6.58Z"/><path class="cls-1" d="M31.78,11.09l.63.56.6.58,0,0h1l1,0q-.49,0-1,.06h-1l0,0c-.19-.2-.39-.4-.58-.61S32,11.3,31.78,11.09Z"/><polygon class="cls-1" points="30.86 13.73 36.65 13.7 36.63 13.71 38.05 12.29 38.06 12.28 38.07 12.28 44.65 12.27 44.67 12.27 44.68 12.28 47.27 14.87 47.24 14.85 53.47 14.84 59.71 14.85 59.73 14.85 59.75 14.86 61.11 16.23 61.07 16.21 72.79 16.23 72.8 16.23 72.81 16.25 74.8 18.24 74.78 18.24 80 18.26 74.78 18.29 74.77 18.29 74.76 18.28 72.76 16.29 72.79 16.3 61.07 16.32 61.05 16.32 61.03 16.31 59.67 14.94 59.71 14.96 53.47 14.96 47.24 14.95 47.22 14.95 47.2 14.94 44.62 12.35 44.65 12.36 38.07 12.35 38.09 12.34 36.67 13.75 36.66 13.76 36.65 13.76 30.86 13.73"/><polygon class="cls-1" points="36.04 6.71 37.98 8.64 37.97 8.63 41.72 8.62 45.47 8.61 45.49 8.61 45.5 8.62 48.68 11.79 48.65 11.78 54.25 11.77 57.06 11.76 59.86 11.76 59.88 11.76 59.9 11.78 61.64 13.53 61.6 13.51 73.71 13.53 73.72 13.53 73.73 13.54 75.15 14.97 75.14 14.96 80 14.99 75.14 15.02 75.13 15.02 75.12 15.01 73.69 13.59 73.71 13.6 61.6 13.62 61.58 13.62 61.56 13.6 59.82 11.87 59.86 11.88 57.06 11.89 54.25 11.88 48.65 11.87 48.63 11.87 48.61 11.86 45.45 8.68 45.47 8.69 41.72 8.68 37.97 8.66 37.97 8.66 37.96 8.66 36.04 6.71"/><polygon class="cls-1" points="52.8 9.13 56.1 9.1 56.11 9.1 56.12 9.11 57.43 10.4 57.41 10.39 59.98 10.38 60 10.38 60.01 10.4 62.05 12.43 62.01 12.41 67.8 12.4 73.59 12.42 73.61 12.42 73.63 12.43 75.19 14.01 75.17 14 80 14.04 75.17 14.08 75.15 14.08 75.14 14.07 73.56 12.5 73.59 12.52 67.8 12.53 62.01 12.52 61.98 12.52 61.97 12.51 59.94 10.47 59.98 10.48 57.41 10.47 57.39 10.47 57.38 10.46 56.08 9.15 56.1 9.16 52.8 9.13"/><path class="cls-1" d="M72.48,18.8c.22.18.44.38.65.58s.42.4.62.6l0,0h1l.49,0,.5,0-.5,0-.49,0h-1l0,0-.6-.63C72.86,19.23,72.67,19,72.48,18.8Z"/><path class="cls-1" d="M51.15,16.15l2,0,2,0h4v0l1.16,1.14,1.15,1.16,0,0,3.74,0H67l1.87,0-1.87,0H65.17c-1.24,0-2.49,0-3.74,0h0l0,0-1.15-1.14-1.15-1.16,0,0c-1.33,0-2.66,0-4,0h-2Z"/><path class="cls-1" d="M43.71,13.73l.37.33.37.34c.24.23.48.46.71.7l0,0v0c0,.3,0,.61,0,.91s0,.6-.05.9c0-.3,0-.6,0-.9s0-.61,0-.91v0c-.23-.24-.46-.47-.69-.72L44,14.11Z"/><path class="cls-1" d="M36.67,15.34l1.19-1.21h0l4.34,0h0l.67.67,0,0v1.69l-1.15,1.15H38.19l-1.81,1.8v2.5c0,.84,0,1.69,0,2.53h0l-1.26,1.23,1.23-1.26h0c0-.84,0-1.69,0-2.53l0-2.54v0l0,0,1.8-1.81,0,0h3.62l0,0,1.14-1.14V14.82l0,0-.67-.68,0,0-4.34,0h0Z"/><path class="cls-1" d="M39.45,20l.49,0,.49,0h1l0,0c.2.2.4.4.59.61l.57.63c-.22-.18-.43-.37-.64-.56s-.41-.39-.61-.59l0,0h-1l-.49,0Z"/><polygon class="cls-1" points="43.71 18.8 48.08 18.77 48.06 18.78 49.39 17.44 49.4 17.43 49.41 17.43 58.67 17.41 58.69 17.41 58.71 17.42 60.94 19.64 60.89 19.62 68.76 19.64 68.78 19.64 68.79 19.65 70.33 21.19 70.3 21.18 75.15 21.19 80 21.22 75.15 21.25 70.3 21.26 70.28 21.26 70.27 21.25 68.73 19.72 68.76 19.73 60.89 19.75 60.86 19.75 60.84 19.73 58.63 17.5 58.67 17.52 49.41 17.5 49.44 17.49 48.1 18.82 48.09 18.82 48.08 18.82 43.71 18.8"/><path class="cls-1" d="M80,23.86c-1.75,0-3.5,0-5.26,0H69.46v0L68,22.45H59.67l-2.25-2.28h0l-3.64,0,3.64,0h0l2.27,2.25,0,0h8.35l0,0,1.45,1.46,0,0h5.25C76.5,23.82,78.25,23.84,80,23.86Z"/><path class="cls-1" d="M58.92,21.62l-3.65,0H51.65l-1.42,1.43,0,0H45.29l-2.45,0-2.45,0,2.45,0,2.45,0h4.89l0,0,1.43-1.43h3.7Z"/><polygon class="cls-1" points="68.91 23.28 65.96 23.31 65.98 23.3 64.17 25.14 64.16 25.15 64.14 25.15 60.03 25.16 60.07 25.15 57.89 27.34 57.87 27.36 57.84 27.36 52.65 27.35 52.69 27.34 50.81 29.2 50.8 29.21 50.78 29.21 47.24 29.2 43.71 29.16 47.24 29.13 50.78 29.11 50.74 29.13 52.61 27.25 52.62 27.24 52.65 27.24 57.84 27.23 57.8 27.25 59.99 25.07 60.01 25.05 60.03 25.05 64.14 25.06 64.11 25.08 65.94 23.27 65.95 23.26 65.96 23.26 68.91 23.28"/><polygon class="cls-1" points="64.19 22.4 62.81 23.82 62.81 23.83 62.79 23.83 60.6 23.85 58.4 23.86 58.44 23.84 57.49 24.79 57.48 24.81 57.45 24.81 54.84 24.82 52.23 24.81 52.27 24.79 50.85 26.19 50.84 26.21 50.82 26.21 48.65 26.19 46.47 26.16 48.65 26.13 50.82 26.11 50.78 26.13 52.19 24.71 52.2 24.7 52.23 24.7 54.84 24.69 57.45 24.69 57.41 24.71 58.36 23.76 58.38 23.75 58.4 23.75 60.6 23.76 62.79 23.78 62.78 23.78 64.19 22.4"/><path class="cls-1" d="M56.31,24.75l-.5-.47-.49-.47h0l-1.21,0h-1.2c-.8,0-1.6,0-2.4,0h0l-1,1h0l-1,0c.33,0,.67,0,1,0h0l1-1v0h0c.8,0,1.6,0,2.4,0h1.2l1.21,0h0c.16.16.32.33.47.5Z"/><path class="cls-1" d="M47.51,23l-.51.54-.51.53h0l-1.27,0H41.45l-.87.85h0l-1.1,0-1.09,0,1.09,0,1.1,0h0l.86-.87H45.2l1.27,0h0l.53-.51Z"/><path class="cls-1" d="M70.37,25.2l-.94,0-.94,0,0,0-.64.66-.65.66,0,0H64.37c-.94,0-1.88,0-2.82,0q1.41,0,2.82-.06h2.77l.66-.64.66-.65h0l.94,0Z"/><path class="cls-1" d="M80,24.63l-1.75,0-1.74,0h0l-1.26,1.27L74,27.2l0,0h0c-1.29,0-2.59,0-3.89,0H66.21L64.4,29l1.76-1.81h0l2,0h1.94c1.3,0,2.6,0,3.89,0l0,0,1.27-1.26,1.28-1.26v0h0l1.74,0Z"/><path class="cls-1" d="M78.16,30.38c-.19.23-.4.45-.6.67s-.41.43-.62.64l0,0h-1l-.49,0-.49,0,.49,0,.49,0h1l-.05,0c.21-.21.42-.42.64-.62S77.93,30.57,78.16,30.38Z"/><path class="cls-1" d="M77.62,27.87c-.36.39-.73.77-1.1,1.15s-.74.77-1.11,1.14l0,0h-3l-1.5,0-1.5,0c.5,0,1,0,1.5,0l1.5,0h3L76.47,29C76.85,28.6,77.23,28.23,77.62,27.87Z"/><path class="cls-1" d="M80,37c-1.53,0-3.07,0-4.6.05h0l-2.18-2.16,0,0H67.78l-1.82,0h0L64.65,33.5,66,34.79h3.61c1.22,0,2.43,0,3.64,0h0v0l2.16,2.17h0C76.93,36.94,78.47,37,80,37Z"/><path class="cls-1" d="M66.4,31.53l1,1,1,1,0,0h6.23l2.08,0h0l1,1-1-1h0l-2.08,0H72.55c-.7,0-1.39,0-2.08,0h-2.1v0l-1-1Z"/><polygon class="cls-1" points="62.01 28.95 62.04 31.87 62.05 34.79 62.04 34.76 64.23 36.94 64.19 36.92 68.55 36.92 72.9 36.92 72.93 36.92 72.94 36.94 74.49 38.5 74.46 38.49 77.23 38.51 80 38.53 77.23 38.56 74.46 38.58 74.44 38.58 74.42 38.57 72.86 37.02 72.9 37.03 68.55 37.04 64.19 37.04 64.17 37.04 64.15 37.02 61.98 34.83 61.96 34.81 61.96 34.79 61.98 31.87 62.01 28.95"/><path class="cls-1" d="M59.63,31l0,.77c0,.25,0,.5,0,.76,0,.51,0,1,0,1.52v0l0,0-.86.86-.87.86v0h0l-1.07,0h-.54l-.54,0,.54,0h.54l1.07,0h0l.86-.87.87-.86,0,0c0-.5,0-1,0-1.52,0-.26,0-.51,0-.76Z"/><path class="cls-1" d="M54.41,30.12l-1,1-1,1v0c0,.72,0,1.44,0,2.17v2.17l0,0,1.16,1.17,0,0H56l2.52,0h0l1-1-1,1h0l-2.52,0H53.51l0,0-1.17-1.16V34.34c0-.73,0-1.45,0-2.17v0h0l1-1Z"/><path class="cls-1" d="M56.52,33.74c0-.45,0-.91-.05-1.36s0-.91,0-1.37v0l0,0,.65-.62.33-.31.34-.3-.3.34-.31.33-.62.65v0c0,.46,0,.91,0,1.37S56.55,33.29,56.52,33.74Z"/><path class="cls-1" d="M58.67,41.22l1,0h1l2.06,0,0,0,1.52-1.54,0,0h5.21l1.72,0h0l.79.82-.82-.79h0l-1.72,0H67.76c-1.15,0-2.31,0-3.46,0l0,0-1.54,1.52v0h0l-2.06,0-1,0Z"/><path class="cls-1" d="M63.54,42.31l-2,0,0,0c-.43.45-.87.89-1.31,1.34l0,0h-2.7c-.89,0-1.79,0-2.68,0,.89,0,1.79,0,2.68-.06h2.67l0,0,1.34-1.31h0Z"/><path class="cls-1" d="M21.53,39.19l3.63,0h3.63l-.05,0,1.39-1.39v0h4.93l2.44,0,2.45,0-2.45,0-2.44,0h-4.9l0,0-1.39,1.38,0,0H27l-1.81,0Z"/><path class="cls-1" d="M32.67,37.81l.48-.51.48-.5h0l1.33,0h4l0,0,.91-.9h0l1.06,0,1,0-1,0-1.06,0,0,0c-.29.31-.59.62-.89.92H35l-1.33,0h0l-.5.48Z"/><path class="cls-1" d="M10,35.68l1.84,0,0,0L12.5,35l.66-.67,0,0H16q1.38,0,2.76.06c-.92,0-1.84,0-2.76,0H13.21l0,0-.67.67-.68.66h0Z"/><path class="cls-1" d="M.36,36c1.14,0,2.29,0,3.43,0h0L5,34.68l1.27-1.27v0h5.91l2,0h0L16,31.65l-1.78,1.83H10.25c-1.31,0-2.61,0-3.92,0h0L5.1,34.76,3.82,36h0Z"/><path class="cls-1" d="M2.66,26.22l1.21,1.17h0l2,0h2c.67,0,1.35,0,2,0l2,0h0l.94,1,.94,1-1-.94-1-.95,0,0H10c-.68,0-1.36,0-2,0h-2l-2,0h0Z"/><g class="cls-2"><circle class="cls-3" cx="40.5" cy="30.5" r="14.08"/><line class="cls-3" x1="30.13" y1="21.61" x2="49.39" y2="40.87"/></g><rect class="cls-4" x="12" y="20.52" width="57" height="20.52" rx="6.39"/><text class="cls-5" transform="translate(28.96 28.2)">Photo <tspan x="-13.11" y="9.58">indisponible</tspan></text></svg>