<svg id="Calque_2" data-name="Calque 2" xmlns="http://www.w3.org/2000/svg" viewBox="0 0 26.22 25.97"><defs><style>.cls-1{fill:#ffd703;}</style></defs><path class="cls-1" d="M11.92.42A11.69,11.69,0,1,0,23.61,12.1,11.69,11.69,0,0,0,11.92.42Zm0,21.32a9.64,9.64,0,1,1,9.64-9.64A9.63,9.63,0,0,1,11.92,21.74Z"/><path class="cls-1" d="M19.51,18.87c.7.34,1.36.73,2,1.09s1.32.78,1.95,1.19,1.44.64,1.86,1.29a3.92,3.92,0,0,1,.57,1,3.86,3.86,0,0,1,.29,1.37l-.18.2a3.81,3.81,0,0,1-1.39-.13,4.76,4.76,0,0,1-1.11-.44c-.7-.35-1-1.12-1.5-1.7s-.95-1.19-1.4-1.81-.9-1.24-1.32-1.9Z"/></svg>