<svg id="Calque_2" data-name="Calque 2" xmlns="http://www.w3.org/2000/svg" viewBox="0 0 26 26.07"><defs><style>.cls-1,.cls-2{fill:#ffd703;}.cls-1{stroke:gold;stroke-miterlimit:10;stroke-width:0.25px;}</style></defs><path class="cls-1" d="M21.59,19.51H10.74A2.31,2.31,0,0,1,8.59,17.9L3.84,4A1.16,1.16,0,0,0,2.76,3.2H.32V2H2.76a2.32,2.32,0,0,1,2.16,1.6l4.74,13.9a1.17,1.17,0,0,0,1.08.81H21.59a1.17,1.17,0,0,0,1.11-.88l1.94-6.9a1.31,1.31,0,0,0-.18-1.09,1.13,1.13,0,0,0-.93-.49h-12V7.73h12a2.22,2.22,0,0,1,1.84,1,2.54,2.54,0,0,1,.36,2.16l-1.94,6.9A2.3,2.3,0,0,1,21.59,19.51Z"/><ellipse class="cls-2" cx="11.1" cy="23.43" rx="1.63" ry="1.71"/><ellipse class="cls-2" cx="21.3" cy="23.43" rx="1.63" ry="1.71"/></svg>